<?xml version="1.0" encoding="UTF-8" standalone="no"?>
<svg
   version="1.1"
   viewBox="-10 0 2469 2048"
   id="svg4"
   sodipodi:docname="uniFB8F-217.svg"
   inkscape:version="1.1 (c68e22c387, 2021-05-23)"
   xmlns:inkscape="http://www.inkscape.org/namespaces/inkscape"
   xmlns:sodipodi="http://sodipodi.sourceforge.net/DTD/sodipodi-0.dtd"
   xmlns="http://www.w3.org/2000/svg"
   xmlns:svg="http://www.w3.org/2000/svg">
  <defs
     id="defs8" />
  <sodipodi:namedview
     id="namedview6"
     pagecolor="#505050"
     bordercolor="#eeeeee"
     borderopacity="1"
     inkscape:pageshadow="0"
     inkscape:pageopacity="0"
     inkscape:pagecheckerboard="0"
     showgrid="false"
     inkscape:zoom="0.17263349"
     inkscape:cx="970.26364"
     inkscape:cy="631.39544"
     inkscape:window-width="1366"
     inkscape:window-height="705"
     inkscape:window-x="-8"
     inkscape:window-y="-8"
     inkscape:window-maximized="1"
     inkscape:current-layer="svg4" />
  <path
     id="path2"
     d="M 1668.5312 -119.26562 C 1232.125 -108.8125 962.50001 277.25 1144 917 C 1565 817 1821 973 1781 1291 L 981 1291 L 728 1291 C 578 1290 460 1277 382 1234 C 248 1161 243 977 313 872 C 354 812 417 780 473 780 C 665 780 635 969 432 969 C 432 1097 530 1184 668 1184 C 1021 1184 1065 578 580 578 C 333 578 171 740 124 953 C 92 1104 102 1367 260 1505 C 359 1593 512 1638 732 1638 L 981 1638 L 2459 1638 L 2467 1638 L 2467 1291 L 2459 1291 L 2164 1291 C 2170 669 1766 492 1244 578 C 1212 101 1820 216 1922 253 C 2057 302 2097 182 2150 0 C 1978 -84.5 1814 -122.75 1668.5312 -119.26562 z "
     transform="translate(-10)" />
</svg>
