<?xml version="1.0" encoding="UTF-8" standalone="no"?>
<svg
   version="1.1"
   viewBox="-10 0 1735 2048"
   id="svg4"
   sodipodi:docname="uniFB7B-229.svg"
   inkscape:version="1.1 (c68e22c387, 2021-05-23)"
   xmlns:inkscape="http://www.inkscape.org/namespaces/inkscape"
   xmlns:sodipodi="http://sodipodi.sourceforge.net/DTD/sodipodi-0.dtd"
   xmlns="http://www.w3.org/2000/svg"
   xmlns:svg="http://www.w3.org/2000/svg">
  <defs
     id="defs8" />
  <sodipodi:namedview
     id="namedview6"
     pagecolor="#505050"
     bordercolor="#eeeeee"
     borderopacity="1"
     inkscape:pageshadow="0"
     inkscape:pageopacity="0"
     inkscape:pagecheckerboard="0"
     showgrid="false"
     inkscape:zoom="0.24414062"
     inkscape:cx="759.808"
     inkscape:cy="2060.288"
     inkscape:window-width="1366"
     inkscape:window-height="705"
     inkscape:window-x="-8"
     inkscape:window-y="-8"
     inkscape:window-maximized="1"
     inkscape:current-layer="svg4" />
  <path
     id="path2"
     d="M 801,578 C 560.1314,573.01818 304.72016,697.38988 207.5625,926.89062 175.80548,995.39122 145.45581,1130.5864 164.73621,1169.0936 315.72625,971.64198 593.26516,852.87008 833.90409,947.45823 971.88616,997.32042 1063.5374,1145.0203 1043,1291 c -256.99245,2.1245 -535.28458,32.7737 -741.07197,202.0514 -188.79822,158.7444 -239.459006,436.2817 -176.5523,666.5476 57.60476,201.3229 254.25391,327.0747 451.47382,363.1196 205.832,36.8709 426.51345,30.4013 621.89805,-49.3694 152.5563,-60.9312 267.2848,-208.6115 274.0761,-374.6531 15.3027,-87.2968 -34.0959,-195.1683 -132.2577,-199.5057 -98.4732,-9.0528 -206.8681,52.9433 -221.6158,156.8498 -22.3028,85.3804 -0.1807,191.8289 -78.2572,254.0895 -96.59515,76.0327 -232.3344,77.9697 -348.2654,56.1822 -139.23212,-26.6267 -223.0771,-165.5178 -227.81426,-299.5548 -13.71182,-128.983 27.71932,-278.3976 151.4236,-340.6783 183.76906,-91.7107 396.31146,-80.584 596.15256,-87.5159 167.6011,-1.0018 335.207,-0.3962 502.8105,-0.5629 0,-115.6667 0,-231.3333 0,-347 -100.6667,0 -201.3333,0 -302,0 -5.0703,-218.3216 -52.693,-463.9359 -236.4082,-603.98047 C 1069.785,605.91384 932.7308,577.89455 801,578 Z" />
  <path
     fill="currentColor"
     d="M 943.1581,2156.9489 822.1405,2035.259 700.4506,2156.9489 822.1405,2277.9665 Z M 822.8128,1920.9646 675.5747,1773.7265 527.6643,1921.6369 675.5747,2068.875 822.8128,1921.6369 970.0509,2068.875 1117.289,1921.6369 970.0509,1773.7265 Z"
     id="path3614"
     sodipodi:nodetypes="cccccccccccccc"
     style="stroke-width:0.67232" />
</svg>
