<?xml version="1.0" encoding="UTF-8" standalone="no"?>
<svg
   version="1.1"
   viewBox="-10 0 694 1000"
   id="svg4"
   sodipodi:docname="uni08b4.fina-454.svg"
   inkscape:version="1.1 (c68e22c387, 2021-05-23)"
   xmlns:inkscape="http://www.inkscape.org/namespaces/inkscape"
   xmlns:sodipodi="http://sodipodi.sourceforge.net/DTD/sodipodi-0.dtd"
   xmlns="http://www.w3.org/2000/svg"
   xmlns:svg="http://www.w3.org/2000/svg">
  <defs
     id="defs8" />
  <sodipodi:namedview
     id="namedview6"
     pagecolor="#505050"
     bordercolor="#eeeeee"
     borderopacity="1"
     inkscape:pageshadow="0"
     inkscape:pageopacity="0"
     inkscape:pagecheckerboard="0"
     showgrid="false"
     inkscape:zoom="0.5"
     inkscape:cx="960"
     inkscape:cy="776"
     inkscape:window-width="1366"
     inkscape:window-height="705"
     inkscape:window-x="-8"
     inkscape:window-y="-8"
     inkscape:window-maximized="1"
     inkscape:current-layer="svg4" />
  <path
     id="path2200"
     d="M 257,551 217.9043,658 H 169 l -18,49 c 20.83333,0 41.66667,0 62.5,0 H 357 l 17,-49 h -97 l 17,-49 h 98 l 21,-58 z"
     transform="translate(-10)"
     sodipodi:nodetypes="cccccccccccc" />
  <path
     d="m 289,936 c -14,0 -26,-5.16667 -36,-15.5 -10,-10.33333 -15,-23.16667 -15,-38.5 0,-14.66667 5,-27.33333 15,-38 10,-10.66667 22,-16 36,-16 14.66667,0 27,5.33333 37,16 10,10.66667 15,23.33333 15,38 0,15.33333 -5,28.16667 -15,38.5 -10,10.33333 -22.33333,15.5 -37,15.5 z"
     id="path2" />
  <path
     d="m 518.00003,368 h 156 l -139.0004,381 v 0 h 35 l 24,25 -24,24 h -59 -150 -312 -49 l 53,-147 h 49 l -35.333,98 h 312.224 z"
     id="path3915"
     style="fill:#000000"
     sodipodi:nodetypes="cccccccccccccccc" />
</svg>
