<?xml version="1.0" encoding="UTF-8" standalone="no"?>
<svg
   version="1.1"
   viewBox="-10 0 737 1000"
   id="svg4"
   sodipodi:docname="uni06a9_STV.svg"
   inkscape:version="1.1 (c68e22c387, 2021-05-23)"
   xmlns:inkscape="http://www.inkscape.org/namespaces/inkscape"
   xmlns:sodipodi="http://sodipodi.sourceforge.net/DTD/sodipodi-0.dtd"
   xmlns="http://www.w3.org/2000/svg"
   xmlns:svg="http://www.w3.org/2000/svg">
  <defs
     id="defs8" />
  <sodipodi:namedview
     id="namedview6"
     pagecolor="#505050"
     bordercolor="#eeeeee"
     borderopacity="1"
     inkscape:pageshadow="0"
     inkscape:pageopacity="0"
     inkscape:pagecheckerboard="0"
     showgrid="false"
     inkscape:snap-global="false"
     inkscape:zoom="0.548"
     inkscape:cx="298.35766"
     inkscape:cy="696.16788"
     inkscape:window-width="1366"
     inkscape:window-height="705"
     inkscape:window-x="-8"
     inkscape:window-y="-8"
     inkscape:window-maximized="1"
     inkscape:current-layer="svg4" />
  <path
     id="path2"
     d="M 697 196.00391 L 316 381.00391 L 344 451.00391 L 405 470.00391 C 464.33333 488.67057 508.5 511.50391 537.5 538.50391 C 566.5 565.50391 581 593.33724 581 622.00391 C 581 647.33724 574.5 668.33724 561.5 685.00391 C 548.51619 701.64982 531.04149 709.97927 509.08008 710 L 193 710 C 172.33333 710 156.66667 705.83333 146 697.5 C 135.33333 689.16667 130 673.33333 130 650 L 130 525 L 40 557 L 40 662 C 40 754 88.333333 800 185 800 L 255 800 L 255 800.00391 L 509 800.00391 C 559 800.00391 598.5 783.17057 627.5 749.50391 C 656.5 715.83724 671 673.33724 671 622.00391 C 671 577.33724 654.16667 533.83724 620.5 491.50391 C 586.83333 449.17057 535.66667 416.67057 467 394.00391 L 697 287.00391 L 697 196.00391 z "
     transform="translate(-10)" />
</svg>
